<svg id="glass-3" xmlns="http://www.w3.org/2000/svg" width="43.182" height="60.807" viewBox="0 0 43.182 60.807">
  <g id="glass">
    <path id="Path_110" data-name="Path 110" d="M39.775,111.5H15.82v-2.146l9.653-4.706.269.912-9.161,4.469v.493H39.014v-.493l-9.166-4.469.269-.912,9.657,4.706Z" transform="translate(-6.2 -50.696)" fill="#a78b7d"/>
    <path id="Path_111" data-name="Path 111" d="M21.591,22.693a4.555,4.555,0,0,1-4-2.359l-.068-.116a2.564,2.564,0,0,0-1.264-1.338A23.871,23.871,0,0,1,4.433,11.128,22.592,22.592,0,0,1,2.623,8.6c-.031-.043-.068-.109-.1-.17l-.058-.1A15.187,15.187,0,0,1,0,.572V.079L.425,0H43.182V.486a15.325,15.325,0,0,1-2.4,7.8l-.037.061c-.052.091-.1.182-.163.268a22.529,22.529,0,0,1-1.825,2.517A23.866,23.866,0,0,1,26.91,18.881,2.482,2.482,0,0,0,25.7,20.164l-.063.122a4.586,4.586,0,0,1-4.05,2.408ZM.86.979A14.628,14.628,0,0,0,3.1,7.729l.173.286a22.143,22.143,0,0,0,1.768,2.432,23.012,23.012,0,0,0,11.425,7.479,3.269,3.269,0,0,1,1.763,1.751l.063.116a3.8,3.8,0,0,0,6.6.018l.073-.14a3.259,3.259,0,0,1,1.752-1.745,22.98,22.98,0,0,0,11.43-7.479A22.9,22.9,0,0,0,39.9,8.014a2.661,2.661,0,0,0,.147-.249l.047-.073A14.617,14.617,0,0,0,42.337.967Z" fill="#a78b7d"/>
    <path id="Path_112" data-name="Path 112" d="M41.617,77.452H34.648l.073-.553a144.771,144.771,0,0,0-1.3-43.854l.961-.195a145.992,145.992,0,0,1,1.386,43.623H40.5A145.973,145.973,0,0,1,41.884,32.85l.961.195a145.158,145.158,0,0,0-1.3,43.854Z" transform="translate(-16.537 -22.555)" fill="#a78b7d"/>
    <path id="Path_113" data-name="Path 113" d="M74.877,9.705c-.251-.005-.364.1-.6,0H74.19l-.28-.17h0l-.164-.14C72.56,8.422,71.8,6.081,71.8,3.43h.973c0,2.639.766,4.475,1.538,5.163l.043.049.164.116h.359V8.9h0Z" transform="translate(-34.407 -2.56)" fill="#a78b7d"/>
    <rect id="Rectangle_118" data-name="Rectangle 118" width="0.979" height="7.577" transform="translate(39.503 0.468)" fill="#a78b7d"/>
    <path id="Path_114" data-name="Path 114" d="M70.533,15.671c-1.824,0-3.223-1-3.223-2.274a2.013,2.013,0,0,1,1.028-1.66l.134-.079a4.475,4.475,0,0,1,4.074-.049,2.845,2.845,0,0,1,.268.164h.328v.268a2.1,2.1,0,0,1,.3.365h0l-.143.4a23.263,23.263,0,0,1-1.985,2.684l-.116.116h-.164a2.687,2.687,0,0,1-.5.061Zm-1.782-3.04a1.034,1.034,0,0,0-.462.766c0,.736,1.18,1.356,2.432,1.289a23.016,23.016,0,0,0,1.684-1.976l-.073-.061h0a2.954,2.954,0,0,0-.249-.164,3.527,3.527,0,0,0-3.144.067Z" transform="translate(-32.647 -4.367)" fill="#a78b7d"/>
    <path id="Path_115" data-name="Path 115" d="M66.007,9.842c-1.824,0-3.217-2.773-3.217-6.452h.973c0,3.223,1.216,5.473,2.244,5.473s2.238-2.25,2.238-5.473h.979C69.223,7.093,67.837,9.842,66.007,9.842Z" transform="translate(-30.268 -2.545)" fill="#a78b7d"/>
    <rect id="Rectangle_119" data-name="Rectangle 119" width="0.979" height="7.577" transform="translate(35.247 0.468)" fill="#a78b7d"/>
    <path id="Path_116" data-name="Path 116" d="M57.027,9.842c-1.824,0-3.217-2.773-3.217-6.452h.979c0,3.223,1.18,5.473,2.238,5.473S59.27,6.613,59.27,3.39h.973C60.243,7.093,58.863,9.842,57.027,9.842Z" transform="translate(-26.246 -2.545)" fill="#a78b7d"/>
    <rect id="Rectangle_120" data-name="Rectangle 120" width="0.979" height="8.124" transform="translate(30.485 0.468)" fill="#a78b7d"/>
    <path id="Path_117" data-name="Path 117" d="M48.057,9.842c-1.824,0-3.217-2.834-3.217-6.452h.979c0,3.223,1.18,5.473,2.238,5.473s2.238-2.25,2.238-5.473h.979C51.273,7.032,49.857,9.842,48.057,9.842Z" transform="translate(-21.871 -2.545)" fill="#a78b7d"/>
    <rect id="Rectangle_121" data-name="Rectangle 121" width="0.979" height="8.069" transform="translate(25.789 0.468)" fill="#a78b7d"/>
    <path id="Path_118" data-name="Path 118" d="M39.083,9.842c-1.824,0-3.223-2.773-3.223-6.452h.979c0,3.223,1.18,5.473,2.244,5.473S41.32,6.613,41.32,3.39H42.3C42.3,7.032,40.883,9.842,39.083,9.842Z" transform="translate(-17.491 -2.545)" fill="#a78b7d"/>
    <rect id="Rectangle_122" data-name="Rectangle 122" width="0.979" height="8.033" transform="translate(21.099 0.468)" fill="#a78b7d"/>
    <path id="Path_119" data-name="Path 119" d="M30.107,9.842c-1.824,0-3.217-2.773-3.217-6.452h.979c0,3.223,1.18,5.473,2.238,5.473s2.238-2.25,2.238-5.473h.979C33.323,7.093,31.943,9.842,30.107,9.842Z" transform="translate(-13.116 -2.545)" fill="#a78b7d"/>
    <rect id="Rectangle_123" data-name="Rectangle 123" width="0.979" height="8.069" transform="translate(16.403 0.468)" fill="#a78b7d"/>
    <path id="Path_120" data-name="Path 120" d="M21.127,9.842c-1.824,0-3.217-2.773-3.217-6.452h.979c0,3.223,1.18,5.473,2.238,5.473S23.37,6.613,23.37,3.39h.979C24.349,7.093,22.963,9.842,21.127,9.842Z" transform="translate(-8.736 -2.545)" fill="#a78b7d"/>
    <rect id="Rectangle_124" data-name="Rectangle 124" width="0.979" height="8.051" transform="translate(11.713 0.468)" fill="#a78b7d"/>
    <path id="Path_121" data-name="Path 121" d="M12.157,9.842c-1.824,0-3.217-2.773-3.217-6.452h.979c0,3.223,1.18,5.473,2.238,5.473s2.238-2.25,2.238-5.473h.979C15.373,7.093,13.993,9.842,12.157,9.842Z" transform="translate(-4.72 -2.545)" fill="#a78b7d"/>
    <rect id="Rectangle_125" data-name="Rectangle 125" width="0.979" height="8.051" transform="translate(6.95 0.468)" fill="#a78b7d"/>
    <path id="Path_122" data-name="Path 122" d="M5.293,9.853,5.25,8.874h0a.724.724,0,0,0,.268-.055h0l.109-.049.164-.1.164-.122h0c.766-.718,1.5-2.536,1.5-5.126h.979c0,2.657-.772,5-1.958,5.971l-.347.28h0l-.061.03A1.964,1.964,0,0,1,5.293,9.853Z" transform="translate(-3.274 -2.557)" fill="#a78b7d"/>
    <rect id="Rectangle_126" data-name="Rectangle 126" width="0.979" height="7.577" transform="translate(2.706 0.468)" fill="#a78b7d"/>
    <path id="Path_123" data-name="Path 123" d="M61.533,15.662c-1.824,0-3.223-1-3.223-2.274s1.417-2.268,3.223-2.268,3.223,1,3.223,2.268S63.339,15.662,61.533,15.662Zm0-3.563c-1.216,0-2.244.608-2.244,1.289S60.335,14.7,61.533,14.7s2.244-.608,2.244-1.289S62.725,12.1,61.533,12.1Z" transform="translate(-28.443 -4.358)" fill="#a78b7d"/>
    <path id="Path_124" data-name="Path 124" d="M52.529,15.662c-1.824,0-3.229-1-3.229-2.274s1.417-2.268,3.229-2.268,3.223,1,3.223,2.268S54.335,15.662,52.529,15.662Zm0-3.563c-1.216,0-2.25.608-2.25,1.289s1.052,1.307,2.25,1.307,2.238-.608,2.238-1.289S53.721,12.1,52.529,12.1Z" transform="translate(-24.048 -4.358)" fill="#a78b7d"/>
    <path id="Path_125" data-name="Path 125" d="M43.563,15.662c-1.824,0-3.223-1-3.223-2.274s1.417-2.268,3.223-2.268,3.223,1,3.223,2.268S45.369,15.662,43.563,15.662Zm0-3.563c-1.216,0-2.244.608-2.244,1.289S42.347,14.7,43.563,14.7s2.244-.608,2.244-1.289S44.755,12.1,43.563,12.1Z" transform="translate(-19.677 -4.358)" fill="#a78b7d"/>
    <path id="Path_126" data-name="Path 126" d="M34.593,15.662c-1.824,0-3.223-1-3.223-2.274s1.417-2.268,3.223-2.268,3.241,1,3.241,2.268S36.4,15.662,34.593,15.662Zm0-3.563c-1.216,0-2.244.608-2.244,1.289S33.395,14.7,34.593,14.7s2.244-.608,2.244-1.289S35.791,12.1,34.593,12.1Z" transform="translate(-15.303 -4.358)" fill="#a78b7d"/>
    <path id="Path_127" data-name="Path 127" d="M25.6,15.662c-1.824,0-3.223-1-3.223-2.274S23.8,11.12,25.6,11.12s3.235,1,3.235,2.268S27.415,15.662,25.6,15.662Zm0-3.563c-1.216,0-2.244.608-2.244,1.289S24.387,14.7,25.6,14.7s2.244-.608,2.244-1.289S26.8,12.1,25.6,12.1Z" transform="translate(-10.917 -4.358)" fill="#a78b7d"/>
    <path id="Path_128" data-name="Path 128" d="M16.633,15.662c-1.824,0-3.223-1-3.223-2.274s1.417-2.268,3.223-2.268,3.217,1,3.217,2.268S18.439,15.662,16.633,15.662Zm0-3.563c-1.216,0-2.244.608-2.244,1.289S15.435,14.7,16.633,14.7s2.244-.608,2.244-1.289S17.825,12.1,16.633,12.1Z" transform="translate(-6.541 -4.358)" fill="#a78b7d"/>
    <path id="Path_129" data-name="Path 129" d="M7.831,15.659a2.688,2.688,0,0,1-.493-.036l.146-.967a2.207,2.207,0,0,0,.347,0c1.216,0,2.244-.608,2.244-1.289a.985.985,0,0,0-.444-.748l-.182-.128a3.515,3.515,0,0,0-2.907-.164l-.109.055L5.9,12.73l.073-.063a1.429,1.429,0,0,0-.268.28L4.9,12.4a2.3,2.3,0,0,1,.383-.432V11.9l.146-.079.268-.17.067-.128H5.9l.207-.146.049.049a4.506,4.506,0,0,1,3.831.243l.085.061h.055l.122.128a1.824,1.824,0,0,1,.79,1.526C11.042,14.655,9.643,15.659,7.831,15.659Z" transform="translate(-2.529 -4.355)" fill="#a78b7d"/>
  </g>
</svg>
