<svg xmlns="http://www.w3.org/2000/svg" width="38.332" height="73.255" viewBox="0 0 38.332 73.255">
  <g id="glass-5" transform="translate(0)">
    <g id="glass">
      <rect id="Rectangle_251" data-name="Rectangle 251" width="1.016" height="26.568" transform="translate(18.661 25.022)" fill="#232a37"/>
      <rect id="Rectangle_252" data-name="Rectangle 252" width="33.415" height="1.016" transform="translate(2.486 37.221)" fill="#232a37"/>
      <rect id="Rectangle_253" data-name="Rectangle 253" width="10.028" height="1.016" transform="translate(15.263 40.915) rotate(-45)" fill="#232a37"/>
      <rect id="Rectangle_254" data-name="Rectangle 254" width="12.325" height="1.016" transform="translate(13.229 39.455) rotate(-20.91)" fill="#232a37"/>
      <rect id="Rectangle_255" data-name="Rectangle 255" width="1.016" height="10.028" transform="translate(15.263 34.543) rotate(-45)" fill="#232a37"/>
      <rect id="Rectangle_256" data-name="Rectangle 256" width="1.016" height="12.325" transform="translate(13.197 36.105) rotate(-70.08)" fill="#232a37"/>
      <rect id="Rectangle_257" data-name="Rectangle 257" width="1.019" height="13.109" transform="matrix(0.937, -0.349, 0.349, 0.937, 16.532, 31.809)" fill="#232a37"/>
      <rect id="Rectangle_258" data-name="Rectangle 258" width="13.07" height="1.016" transform="matrix(0.34, -0.941, 0.941, 0.34, 16.467, 43.7)" fill="#232a37"/>
      <path id="Path_205" data-name="Path 205" d="M34.532,73.255H3.786v-.48L0,0H38.331V.536ZM4.765,72.239H33.573L37.265,1.016H1.067Z" fill="#232a37"/>
      <path id="Path_206" data-name="Path 206" d="M33.374,94.632H32.358V69.383l-6.216,7.806-6.216-7.806V94.632H18.91V66.48l7.232,9.081,7.232-9.081Z" transform="translate(-6.976 -24.526)" fill="#232a37"/>
      <rect id="Rectangle_259" data-name="Rectangle 259" width="1.016" height="18.516" transform="translate(18.661 51.59)" fill="#232a37"/>
      <rect id="Rectangle_260" data-name="Rectangle 260" width="27.534" height="1.016" transform="matrix(0.244, -0.97, 0.97, 0.244, 18.673, 69.986)" fill="#232a37"/>
      <rect id="Rectangle_261" data-name="Rectangle 261" width="1.016" height="27.534" transform="translate(11.955 43.522) rotate(-14.14)" fill="#232a37"/>
      <path id="Path_207" data-name="Path 207" d="M12.06,94.632H11.044V69.383L5.225,76.691l-.8-.631,7.63-9.58Z" transform="translate(-1.634 -24.526)" fill="#232a37"/>
      <path id="Path_208" data-name="Path 208" d="M4.26,82.009V81.75H5.276v.227Z" transform="translate(-1.572 -30.16)" fill="#232a37"/>
      <rect id="Rectangle_262" data-name="Rectangle 262" width="24.315" height="1.016" transform="matrix(0.244, -0.97, 0.97, 0.244, 3.486, 66.859)" fill="#232a37"/>
      <path id="Path_209" data-name="Path 209" d="M45.236,94.632H44.22V66.48l7.63,9.58-.8.631-5.818-7.308Z" transform="translate(-16.314 -24.526)" fill="#232a37"/>
      <path id="Path_210" data-name="Path 210" d="M50.171,92.39,44.22,68.706l.524-.006.48-.12,5.932,23.558Z" transform="translate(-16.314 -25.301)" fill="#232a37"/>
      <path id="Path_211" data-name="Path 211" d="M33.38,38.448l-7.232-9.081L18.91,38.448V10.29h1.016V35.539l6.222-7.806,6.216,7.806V10.29H33.38Z" transform="translate(-6.976 -3.796)" fill="#232a37"/>
      <rect id="Rectangle_263" data-name="Rectangle 263" width="1.016" height="18.516" transform="translate(18.661 6.494)" fill="#232a37"/>
      <rect id="Rectangle_264" data-name="Rectangle 264" width="27.534" height="1.016" transform="matrix(0.244, -0.97, 0.97, 0.244, 11.954, 33.07)" fill="#232a37"/>
      <rect id="Rectangle_265" data-name="Rectangle 265" width="1.016" height="27.534" transform="translate(18.678 6.621) rotate(-14.14)" fill="#232a37"/>
      <path id="Path_212" data-name="Path 212" d="M44.23,38.448V10.29h1.016V35.539l7.125-8.968.8.631Z" transform="translate(-16.318 -3.796)" fill="#232a37"/>
      <rect id="Rectangle_266" data-name="Rectangle 266" width="27.546" height="1.016" transform="matrix(0.244, -0.97, 0.97, 0.244, 27.929, 33.072)" fill="#232a37"/>
      <path id="Path_213" data-name="Path 213" d="M11.248,38.448,2.23,27.077l.8-.631,7.207,9.087V10.29h1.016Z" transform="translate(-0.823 -3.796)" fill="#232a37"/>
      <path id="Path_214" data-name="Path 214" d="M11.015,37.069,4.3,10.406l.984-.246,6.727,26.783-.524.006Z" transform="translate(-1.586 -3.748)" fill="#232a37"/>
      <rect id="Rectangle_267" data-name="Rectangle 267" width="30.058" height="1.016" transform="translate(4.14 69.494)" fill="#232a37"/>
      <rect id="Rectangle_268" data-name="Rectangle 268" width="36.634" height="1.016" transform="translate(0.852 6.058)" fill="#232a37"/>
    </g>
  </g>
</svg>
