<svg xmlns="http://www.w3.org/2000/svg" width="47.566" height="100" viewBox="0 0 47.566 100">
  <g id="glass-2" transform="translate(0 1.003)">
    <g id="glass" transform="translate(0 -1.003)">
      <path id="Path_155" data-name="Path 155" d="M37.408,31.532,27.98,22.1l.614-.689.017.017,9.428,9.428Z" transform="translate(-13.541 -9.123)" fill="#a78b7d"/>
      <rect id="Rectangle_131" data-name="Rectangle 131" width="0.924" height="19.716" transform="translate(14.573 7.064) rotate(-45)" fill="#a78b7d"/>
      <rect id="Rectangle_132" data-name="Rectangle 132" width="0.924" height="20.548" transform="translate(16.83 3.364) rotate(-45)" fill="#a78b7d"/>
      <rect id="Rectangle_133" data-name="Rectangle 133" width="0.924" height="17.295" transform="translate(20.551 1.108) rotate(-45)" fill="#a78b7d"/>
      <path id="Path_156" data-name="Path 156" d="M45.011,31.535,44.34,30.9l9.433-9.433.671.643Z" transform="translate(-21.461 -9.149)" fill="#a78b7d"/>
      <rect id="Rectangle_134" data-name="Rectangle 134" width="19.705" height="0.924" transform="translate(18.216 20.322) rotate(-44.8)" fill="#a78b7d"/>
      <path id="Path_157" data-name="Path 157" d="M30.934,19.913l-.654-.654L44.815,4.73l.648.654Z" transform="translate(-14.899 -2.014)" fill="#a78b7d"/>
      <path id="Path_158" data-name="Path 158" d="M27.918,13.688l-.648-.66.39-.384L39.5.8l.654.654Z" transform="translate(-13.311 -0.34)" fill="#a78b7d"/>
      <path id="Path_159" data-name="Path 159" d="M37.25,22.538h-.057a9.6,9.6,0,0,1-3.787-.786,10.088,10.088,0,0,1-1.32-.689,10.9,10.9,0,0,1-3.322-3.242,11.476,11.476,0,0,1-1-1.871,11.93,11.93,0,0,1-.8-2.869,2.391,2.391,0,0,0-.046-.339,5.651,5.651,0,0,1-.052-.574,8.779,8.779,0,0,1-.04-.9,12.5,12.5,0,0,1,.1-1.865,11.746,11.746,0,0,1,.815-2.869,3.954,3.954,0,0,1,.2-.419,8.779,8.779,0,0,1,.746-1.337A10.369,10.369,0,0,1,30.29,2.868l.075-.1.069-.069a10.415,10.415,0,0,1,1.5-1.148A9.829,9.829,0,0,1,34.679.337a9.652,9.652,0,0,1,5.078,0,9.921,9.921,0,0,1,2.7,1.194,10.329,10.329,0,0,1,1.521,1.148c.1.1.149.143.189.189A10.409,10.409,0,0,1,45.6,4.589h.224v.344a11.952,11.952,0,0,1,.666,1.228,3.443,3.443,0,0,1,.184.407,11.476,11.476,0,0,1,.809,2.84,12.274,12.274,0,0,1,.138,1.859,8.177,8.177,0,0,1-.04.924,4.2,4.2,0,0,1-.046.516,1,1,0,0,1-.052.384,12.05,12.05,0,0,1-.8,2.869,11.436,11.436,0,0,1-1,1.871,11.218,11.218,0,0,1-1.113,1.417,11.092,11.092,0,0,1-2.2,1.83,9.755,9.755,0,0,1-1.36.689A9.514,9.514,0,0,1,37.25,22.538Zm0-21.616a8.739,8.739,0,0,0-2.3.3,9.055,9.055,0,0,0-2.473,1.1A9.955,9.955,0,0,0,31.11,3.379l-.172.132a9.629,9.629,0,0,0-1.475,1.8,8.171,8.171,0,0,0-.694,1.239c-.069.138-.121.247-.172.362a11.063,11.063,0,0,0-.752,2.64,12.217,12.217,0,0,0-.126,1.721,8,8,0,0,0,.04.832,3.89,3.89,0,0,0,.04.482,1.8,1.8,0,0,0,.046.356,10.96,10.96,0,0,0,.746,2.651,10.315,10.315,0,0,0,1.939,3.024,9.566,9.566,0,0,0,2.02,1.664,8.246,8.246,0,0,0,1.205.62,8.607,8.607,0,0,0,3.443.717l.04.459v-.459a8.739,8.739,0,0,0,3.443-.706,8.923,8.923,0,0,0,3.242-2.3,10.329,10.329,0,0,0,1.021-1.3A10.845,10.845,0,0,0,46.6,12.944a2.234,2.234,0,0,1,.052-.35c.017-.115.034-.316.04-.465.029-.3.034-.574.034-.861A11.2,11.2,0,0,0,46.6,9.547a10.9,10.9,0,0,0-.746-2.628c-.052-.126-.1-.235-.161-.344a10.6,10.6,0,0,0-.574-1.05h-.207V5.2A9.571,9.571,0,0,0,43.5,3.534c-.046-.052-.075-.075-.1-.1l-.063-.063a9.284,9.284,0,0,0-1.371-1.073A8.929,8.929,0,0,0,37.216.906Z" transform="translate(-13.515 0.003)" fill="#a78b7d"/>
      <rect id="Rectangle_135" data-name="Rectangle 135" width="13.215" height="0.924" transform="translate(17.089 2.739)" fill="#a78b7d"/>
      <rect id="Rectangle_136" data-name="Rectangle 136" width="17.714" height="0.924" transform="translate(14.841 5.894)" fill="#a78b7d"/>
      <rect id="Rectangle_137" data-name="Rectangle 137" width="19.63" height="0.924" transform="translate(13.888 9.016)" fill="#a78b7d"/>
      <rect id="Rectangle_138" data-name="Rectangle 138" width="19.733" height="0.924" transform="translate(13.836 12.189)" fill="#a78b7d"/>
      <rect id="Rectangle_139" data-name="Rectangle 139" width="18.081" height="0.924" transform="translate(14.657 15.311)" fill="#a78b7d"/>
      <rect id="Rectangle_140" data-name="Rectangle 140" width="14.03" height="0.924" transform="translate(16.687 18.467)" fill="#a78b7d"/>
      <rect id="Rectangle_141" data-name="Rectangle 141" width="14.701" height="0.924" transform="matrix(0.707, -0.707, 0.707, 0.707, 18.266, 78.715)" fill="#a78b7d"/>
      <rect id="Rectangle_142" data-name="Rectangle 142" width="0.924" height="14.701" transform="translate(18.275 68.971) rotate(-45)" fill="#a78b7d"/>
      <rect id="Rectangle_143" data-name="Rectangle 143" width="46.866" height="0.924" transform="translate(0.235 73.601)" fill="#a78b7d"/>
      <rect id="Rectangle_144" data-name="Rectangle 144" width="0.924" height="31.038" transform="translate(23.337 56.407)" fill="#a78b7d"/>
      <rect id="Rectangle_145" data-name="Rectangle 145" width="0.924" height="3.437" transform="translate(2.485 54.155)" fill="#a78b7d"/>
      <rect id="Rectangle_146" data-name="Rectangle 146" width="0.924" height="3.437" transform="translate(5.027 54.155)" fill="#a78b7d"/>
      <rect id="Rectangle_147" data-name="Rectangle 147" width="0.924" height="3.437" transform="translate(7.563 54.155)" fill="#a78b7d"/>
      <rect id="Rectangle_148" data-name="Rectangle 148" width="0.924" height="3.437" transform="translate(9.271 54.155)" fill="#a78b7d"/>
      <rect id="Rectangle_149" data-name="Rectangle 149" width="0.924" height="3.437" transform="translate(11.603 54.155)" fill="#a78b7d"/>
      <rect id="Rectangle_150" data-name="Rectangle 150" width="0.924" height="3.437" transform="translate(13.935 54.155)" fill="#a78b7d"/>
      <rect id="Rectangle_151" data-name="Rectangle 151" width="0.924" height="3.437" transform="translate(16.267 54.155)" fill="#a78b7d"/>
      <rect id="Rectangle_152" data-name="Rectangle 152" width="0.924" height="3.437" transform="translate(18.599 54.155)" fill="#a78b7d"/>
      <rect id="Rectangle_153" data-name="Rectangle 153" width="0.924" height="3.437" transform="translate(20.931 54.155)" fill="#a78b7d"/>
      <rect id="Rectangle_154" data-name="Rectangle 154" width="0.924" height="3.437" transform="translate(23.263 54.155)" fill="#a78b7d"/>
      <rect id="Rectangle_155" data-name="Rectangle 155" width="0.924" height="3.437" transform="translate(25.595 54.155)" fill="#a78b7d"/>
      <rect id="Rectangle_156" data-name="Rectangle 156" width="0.924" height="3.437" transform="translate(27.927 54.155)" fill="#a78b7d"/>
      <rect id="Rectangle_157" data-name="Rectangle 157" width="0.924" height="3.437" transform="translate(30.259 54.155)" fill="#a78b7d"/>
      <rect id="Rectangle_158" data-name="Rectangle 158" width="0.924" height="3.437" transform="translate(32.592 54.155)" fill="#a78b7d"/>
      <rect id="Rectangle_159" data-name="Rectangle 159" width="0.924" height="3.437" transform="translate(34.924 54.155)" fill="#a78b7d"/>
      <rect id="Rectangle_160" data-name="Rectangle 160" width="0.924" height="3.437" transform="translate(37.256 54.155)" fill="#a78b7d"/>
      <rect id="Rectangle_161" data-name="Rectangle 161" width="0.924" height="3.437" transform="translate(38.953 54.155)" fill="#a78b7d"/>
      <rect id="Rectangle_162" data-name="Rectangle 162" width="0.924" height="3.437" transform="translate(41.495 54.155)" fill="#a78b7d"/>
      <rect id="Rectangle_163" data-name="Rectangle 163" width="0.924" height="3.437" transform="translate(44.037 54.155)" fill="#a78b7d"/>
      <rect id="Rectangle_164" data-name="Rectangle 164" width="0.924" height="3.437" transform="translate(2.485 90.067)" fill="#a78b7d"/>
      <rect id="Rectangle_165" data-name="Rectangle 165" width="0.924" height="3.437" transform="translate(5.027 90.067)" fill="#a78b7d"/>
      <rect id="Rectangle_166" data-name="Rectangle 166" width="0.924" height="3.437" transform="translate(7.563 90.067)" fill="#a78b7d"/>
      <rect id="Rectangle_167" data-name="Rectangle 167" width="0.924" height="3.437" transform="translate(9.271 90.067)" fill="#a78b7d"/>
      <rect id="Rectangle_168" data-name="Rectangle 168" width="0.924" height="3.437" transform="translate(11.603 90.067)" fill="#a78b7d"/>
      <rect id="Rectangle_169" data-name="Rectangle 169" width="0.924" height="3.437" transform="translate(13.935 90.067)" fill="#a78b7d"/>
      <rect id="Rectangle_170" data-name="Rectangle 170" width="0.924" height="3.437" transform="translate(16.267 90.067)" fill="#a78b7d"/>
      <rect id="Rectangle_171" data-name="Rectangle 171" width="0.924" height="3.437" transform="translate(18.599 90.067)" fill="#a78b7d"/>
      <rect id="Rectangle_172" data-name="Rectangle 172" width="0.924" height="3.437" transform="translate(20.931 90.067)" fill="#a78b7d"/>
      <rect id="Rectangle_173" data-name="Rectangle 173" width="0.924" height="3.437" transform="translate(23.263 90.067)" fill="#a78b7d"/>
      <rect id="Rectangle_174" data-name="Rectangle 174" width="0.924" height="3.437" transform="translate(25.595 90.067)" fill="#a78b7d"/>
      <rect id="Rectangle_175" data-name="Rectangle 175" width="0.924" height="3.437" transform="translate(27.927 90.067)" fill="#a78b7d"/>
      <rect id="Rectangle_176" data-name="Rectangle 176" width="0.924" height="3.437" transform="translate(30.259 90.067)" fill="#a78b7d"/>
      <rect id="Rectangle_177" data-name="Rectangle 177" width="0.924" height="3.437" transform="translate(32.592 90.067)" fill="#a78b7d"/>
      <rect id="Rectangle_178" data-name="Rectangle 178" width="0.924" height="3.437" transform="translate(34.924 90.067)" fill="#a78b7d"/>
      <rect id="Rectangle_179" data-name="Rectangle 179" width="0.924" height="3.437" transform="translate(37.256 90.067)" fill="#a78b7d"/>
      <rect id="Rectangle_180" data-name="Rectangle 180" width="0.924" height="3.437" transform="translate(38.953 90.067)" fill="#a78b7d"/>
      <rect id="Rectangle_181" data-name="Rectangle 181" width="0.924" height="3.437" transform="translate(41.495 90.067)" fill="#a78b7d"/>
      <rect id="Rectangle_182" data-name="Rectangle 182" width="0.924" height="3.437" transform="translate(44.037 90.067)" fill="#a78b7d"/>
      <path id="Path_160" data-name="Path 160" d="M44.692,139.577H2.874L0,133.392V84.9L17.928,72.16H29.665L47.566,84.9v48.5Zm-41.3-.918H44.17l2.547-5.48V85.4L29.412,73.084H18.154L.849,85.4v47.776Z" transform="translate(0 -39.577)" fill="#a78b7d"/>
      <path id="Path_161" data-name="Path 161" d="M44.692,139.577H2.874L0,133.392V84.9L17.928,72.16H29.665L47.566,84.9v48.5Zm-41.3-.918H44.17l2.547-5.48V85.4L29.412,73.084H18.154L.849,85.4v47.776Z" transform="translate(0 -39.577)" fill="#a78b7d"/>
      <path id="Path_162" data-name="Path 162" d="M44.117,60.6H30.667V50.806L27,45.165v-2.3H47.8v2.3l-3.684,5.641Zm-12.526-.924h11.6V50.53l3.684-5.641V43.777H27.907V44.89l3.684,5.641Z" transform="translate(-13.607 -20.652)" fill="#a78b7d"/>
      <rect id="Rectangle_183" data-name="Rectangle 183" width="46.631" height="0.924" transform="translate(0.476 93.252)" fill="#a78b7d"/>
      <rect id="Rectangle_184" data-name="Rectangle 184" width="46.476" height="0.924" transform="translate(0.631 49.523)" fill="#a78b7d"/>
      <rect id="Rectangle_185" data-name="Rectangle 185" width="12.526" height="0.924" transform="translate(17.525 29.322)" fill="#a78b7d"/>
      <rect id="Rectangle_186" data-name="Rectangle 186" width="19.877" height="0.924" transform="translate(13.847 24.154)" fill="#a78b7d"/>
      <path id="Path_163" data-name="Path 163" d="M80.334,163.465l-.654-.654,5.25-5.25.367.287.321.333-.034.034Z" transform="translate(-38.156 -75.974)" fill="#a78b7d"/>
      <path id="Path_164" data-name="Path 164" d="M45.244,148.51l-.654-.648L69.975,122.47l.367.293.321.333Z" transform="translate(-23.201 -61.019)" fill="#a78b7d"/>
      <path id="Path_165" data-name="Path 165" d="M54.024,152.252l-.654-.654L73.717,131.25l.367.287.321.327-.034.04Z" transform="translate(-26.943 -64.761)" fill="#a78b7d"/>
      <path id="Path_166" data-name="Path 166" d="M62.794,155.989l-.654-.654L77.455,140.02l.367.287.321.333-.034.034Z" transform="translate(-30.681 -68.498)" fill="#a78b7d"/>
      <path id="Path_167" data-name="Path 167" d="M71.564,159.723l-.654-.654L81.193,148.78l.367.293.321.333-.034.034Z" transform="translate(-34.419 -72.232)" fill="#a78b7d"/>
      <path id="Path_168" data-name="Path 168" d="M84.952,119.12l-5.3-5.3.654-.648,5.268,5.262-.287.367Z" transform="translate(-38.144 -53.801)" fill="#a78b7d"/>
      <path id="Path_169" data-name="Path 169" d="M70.01,139.25,59.951,129.191,44.59,113.83l.643-.66,25.4,25.4-.287.361Z" transform="translate(-23.201 -55.156)" fill="#a78b7d"/>
      <path id="Path_170" data-name="Path 170" d="M73.751,134.229l-5.038-5.038L53.34,113.818l.654-.648,20.365,20.365Z" transform="translate(-26.931 -54.76)" fill="#a78b7d"/>
      <path id="Path_171" data-name="Path 171" d="M77.477,129.185l-.04-.04L62.11,113.818l.654-.648L78.1,128.5l-.287.367Z" transform="translate(-30.668 -54.405)" fill="#a78b7d"/>
      <path id="Path_172" data-name="Path 172" d="M81.226,124.159l-2.519-2.513-7.827-7.827.654-.648,10.3,10.3Z" transform="translate(-34.406 -54.088)" fill="#a78b7d"/>
      <path id="Path_173" data-name="Path 173" d="M.907,119.126l-.677-.631,5.331-5.325.654.648Z" transform="translate(-0.098 -53.801)" fill="#a78b7d"/>
      <path id="Path_174" data-name="Path 174" d="M.894,124.159.2,123.55l.023-.023L10.58,113.17l.654.648Z" transform="translate(-0.085 -54.088)" fill="#a78b7d"/>
      <path id="Path_175" data-name="Path 175" d="M.907,129.191.23,128.56l15.4-15.39.654.648Z" transform="translate(-0.098 -54.406)" fill="#a78b7d"/>
      <path id="Path_176" data-name="Path 176" d="M.907,134.223l-.677-.631L20.658,113.17l.654.648Z" transform="translate(-0.098 -54.76)" fill="#a78b7d"/>
      <path id="Path_177" data-name="Path 177" d="M.907,139.26l-.677-.631L25.684,113.18l.654.643Z" transform="translate(-0.098 -55.161)" fill="#a78b7d"/>
      <path id="Path_178" data-name="Path 178" d="M5.561,163.426.27,158.136l.31-.35.339-.316.023.029,5.273,5.273Z" transform="translate(-0.115 -75.935)" fill="#a78b7d"/>
      <path id="Path_179" data-name="Path 179" d="M10.593,159.68.27,149.357.9,148.68l10.346,10.346Z" transform="translate(-0.115 -72.189)" fill="#a78b7d"/>
      <path id="Path_180" data-name="Path 180" d="M15.625,155.955.27,140.6l.31-.35.344-.31.017.029L16.279,155.3Z" transform="translate(-0.115 -68.464)" fill="#a78b7d"/>
      <path id="Path_181" data-name="Path 181" d="M20.658,152.2.27,131.817.9,131.14l20.411,20.411Z" transform="translate(-0.115 -64.714)" fill="#a78b7d"/>
      <path id="Path_182" data-name="Path 182" d="M25.7,148.486.27,123.06l.31-.35.344-.31.017.029,25.4,25.4Z" transform="translate(-0.115 -60.989)" fill="#a78b7d"/>
      <rect id="Rectangle_187" data-name="Rectangle 187" width="46.642" height="0.924" transform="translate(0.465 86.699)" fill="#a78b7d"/>
      <rect id="Rectangle_188" data-name="Rectangle 188" width="46.642" height="0.924" transform="translate(0.465 59.502)" fill="#a78b7d"/>
      <rect id="Rectangle_189" data-name="Rectangle 189" width="46.642" height="0.924" transform="translate(0.465 56.794)" fill="#a78b7d"/>
      <rect id="Rectangle_190" data-name="Rectangle 190" width="0.924" height="9.697" transform="translate(21.547 29.358)" fill="#a78b7d"/>
      <rect id="Rectangle_191" data-name="Rectangle 191" width="0.924" height="9.697" transform="translate(24.921 29.358)" fill="#a78b7d"/>
      <rect id="Rectangle_192" data-name="Rectangle 192" width="0.924" height="3.713" transform="translate(19.91 18.539)" fill="#a78b7d"/>
      <rect id="Rectangle_193" data-name="Rectangle 193" width="0.924" height="3.707" transform="translate(26.553 18.545)" fill="#a78b7d"/>
    </g>
  </g>
</svg>
