<svg id="glass-4" xmlns="http://www.w3.org/2000/svg" width="49.652" height="55.055" viewBox="0 0 49.652 55.055">
  <g id="glass">
    <rect id="Rectangle_194" data-name="Rectangle 194" width="14.251" height="1.318" transform="matrix(0.708, -0.706, 0.706, 0.708, 19.222, 34.162)" fill="#232a37"/>
    <rect id="Rectangle_195" data-name="Rectangle 195" width="1.318" height="14.251" transform="translate(19.224 25.02) rotate(-45.01)" fill="#232a37"/>
    <rect id="Rectangle_196" data-name="Rectangle 196" width="14.251" height="1.318" transform="translate(17.607 28.935)" fill="#232a37"/>
    <rect id="Rectangle_197" data-name="Rectangle 197" width="1.318" height="14.259" transform="translate(24.073 22.469)" fill="#232a37"/>
    <path id="Path_183" data-name="Path 183" d="M49.652,55.055H0V0H49.652ZM1.359,53.737H48.335V1.351H1.318Z" fill="#232a37"/>
    <path id="Path_184" data-name="Path 184" d="M54.281,42.846H54L29.07,17.921l.925-.941.475.467,24.27,24.278-.458.458Z" transform="translate(-5.275 -3.081)" fill="#232a37"/>
    <rect id="Rectangle_198" data-name="Rectangle 198" width="1.318" height="26.144" transform="translate(30.047 14.798) rotate(-44.99)" fill="#232a37"/>
    <rect id="Rectangle_199" data-name="Rectangle 199" width="1.318" height="17.238" transform="translate(36.349 14.807) rotate(-45)" fill="#232a37"/>
    <path id="Path_185" data-name="Path 185" d="M57.983,23.767,52.09,17.873l.933-.933L59.1,23.03v.27l-.655.008Z" transform="translate(-9.452 -3.074)" fill="#232a37"/>
    <path id="Path_186" data-name="Path 186" d="M53.023,54l-.933-.933,5.7-5.705v-.385l.663-.008.008.663H59.1v.27l-.188.2Z" transform="translate(-9.452 -8.523)" fill="#232a37"/>
    <rect id="Rectangle_200" data-name="Rectangle 200" width="17.238" height="1.318" transform="matrix(0.707, -0.707, 0.707, 0.707, 36.337, 44.543)" fill="#232a37"/>
    <rect id="Rectangle_201" data-name="Rectangle 201" width="26.144" height="1.318" transform="matrix(0.708, -0.706, 0.706, 0.708, 30.041, 44.529)" fill="#232a37"/>
    <path id="Path_187" data-name="Path 187" d="M30.018,49.795l-.524-.409-.434-.491L53.8,24.15l.933.933Z" transform="translate(-5.273 -4.382)" fill="#232a37"/>
    <rect id="Rectangle_202" data-name="Rectangle 202" width="34.943" height="1.318" transform="matrix(0.707, -0.707, 0.707, 0.707, 0.188, 38.637)" fill="#232a37"/>
    <path id="Path_188" data-name="Path 188" d="M1.151,36.364l-.442-.45-.589-.36.1-.123L18.7,16.94l.933.933Z" transform="translate(-0.022 -3.074)" fill="#232a37"/>
    <path id="Path_189" data-name="Path 189" d="M1.05,30.159.7,29.586.24,29.128,12.428,16.94l.933.933Z" transform="translate(-0.044 -3.074)" fill="#232a37"/>
    <path id="Path_190" data-name="Path 190" d="M.985,23.963H.707V23.3L.24,22.842l5.893-5.9.933.933Z" transform="translate(-0.044 -3.074)" fill="#232a37"/>
    <rect id="Rectangle_203" data-name="Rectangle 203" width="1.318" height="8.349" transform="translate(0.189 39.576) rotate(-45)" fill="#232a37"/>
    <path id="Path_191" data-name="Path 191" d="M12.428,52.658.24,40.47.707,40l.5-.426.008.008L13.361,51.725Z" transform="translate(-0.044 -7.181)" fill="#232a37"/>
    <path id="Path_192" data-name="Path 192" d="M18.7,51.254.13,32.649l.581-.368.442-.45L19.636,50.321Z" transform="translate(-0.024 -5.776)" fill="#232a37"/>
    <path id="Path_193" data-name="Path 193" d="M25,49.841.393,25.228H.008L0,24.573l.663-.008V23.91h.27l.2.2,24.8,24.8Z" transform="translate(0 -4.339)" fill="#232a37"/>
    <rect id="Rectangle_204" data-name="Rectangle 204" width="48.22" height="1.318" transform="translate(0.458 13.67)" fill="#232a37"/>
    <rect id="Rectangle_205" data-name="Rectangle 205" width="48.22" height="1.318" transform="translate(0.458 10.813)" fill="#232a37"/>
    <rect id="Rectangle_206" data-name="Rectangle 206" width="48.4" height="1.318" transform="translate(0.475 44.34)" fill="#232a37"/>
    <rect id="Rectangle_207" data-name="Rectangle 207" width="48.4" height="1.318" transform="translate(0.475 47.197)" fill="#232a37"/>
    <rect id="Rectangle_208" data-name="Rectangle 208" width="1.318" height="3.331" transform="translate(2.349 7.981)" fill="#232a37"/>
    <rect id="Rectangle_209" data-name="Rectangle 209" width="1.318" height="3.331" transform="translate(5.451 7.981)" fill="#232a37"/>
    <rect id="Rectangle_210" data-name="Rectangle 210" width="1.318" height="3.331" transform="translate(8.554 7.981)" fill="#232a37"/>
    <rect id="Rectangle_211" data-name="Rectangle 211" width="1.318" height="3.331" transform="translate(11.656 7.981)" fill="#232a37"/>
    <rect id="Rectangle_212" data-name="Rectangle 212" width="1.318" height="3.331" transform="translate(14.758 7.981)" fill="#232a37"/>
    <rect id="Rectangle_213" data-name="Rectangle 213" width="1.318" height="3.331" transform="translate(17.869 7.981)" fill="#232a37"/>
    <rect id="Rectangle_214" data-name="Rectangle 214" width="1.318" height="3.331" transform="translate(20.971 7.981)" fill="#232a37"/>
    <rect id="Rectangle_215" data-name="Rectangle 215" width="1.318" height="3.331" transform="translate(24.073 7.981)" fill="#232a37"/>
    <rect id="Rectangle_216" data-name="Rectangle 216" width="1.318" height="3.331" transform="translate(27.175 7.981)" fill="#232a37"/>
    <rect id="Rectangle_217" data-name="Rectangle 217" width="1.318" height="3.331" transform="translate(30.278 7.981)" fill="#232a37"/>
    <rect id="Rectangle_218" data-name="Rectangle 218" width="1.318" height="3.331" transform="translate(33.388 7.981)" fill="#232a37"/>
    <rect id="Rectangle_219" data-name="Rectangle 219" width="1.318" height="3.331" transform="translate(36.49 7.981)" fill="#232a37"/>
    <rect id="Rectangle_220" data-name="Rectangle 220" width="1.318" height="3.331" transform="translate(39.593 7.981)" fill="#232a37"/>
    <rect id="Rectangle_221" data-name="Rectangle 221" width="1.318" height="3.331" transform="translate(42.695 7.981)" fill="#232a37"/>
    <rect id="Rectangle_222" data-name="Rectangle 222" width="1.318" height="3.331" transform="translate(45.805 7.981)" fill="#232a37"/>
    <rect id="Rectangle_223" data-name="Rectangle 223" width="1.318" height="3.331" transform="translate(2.349 47.852)" fill="#232a37"/>
    <rect id="Rectangle_224" data-name="Rectangle 224" width="1.318" height="3.331" transform="translate(5.451 47.852)" fill="#232a37"/>
    <rect id="Rectangle_225" data-name="Rectangle 225" width="1.318" height="3.331" transform="translate(8.554 47.852)" fill="#232a37"/>
    <rect id="Rectangle_226" data-name="Rectangle 226" width="1.318" height="3.331" transform="translate(11.656 47.852)" fill="#232a37"/>
    <rect id="Rectangle_227" data-name="Rectangle 227" width="1.318" height="3.331" transform="translate(14.758 47.852)" fill="#232a37"/>
    <rect id="Rectangle_228" data-name="Rectangle 228" width="1.318" height="3.331" transform="translate(17.869 47.852)" fill="#232a37"/>
    <rect id="Rectangle_229" data-name="Rectangle 229" width="1.318" height="3.331" transform="translate(20.971 47.852)" fill="#232a37"/>
    <rect id="Rectangle_230" data-name="Rectangle 230" width="1.318" height="3.331" transform="translate(24.073 47.852)" fill="#232a37"/>
    <rect id="Rectangle_231" data-name="Rectangle 231" width="1.318" height="3.331" transform="translate(27.175 47.852)" fill="#232a37"/>
    <rect id="Rectangle_232" data-name="Rectangle 232" width="1.318" height="3.331" transform="translate(30.278 47.852)" fill="#232a37"/>
    <rect id="Rectangle_233" data-name="Rectangle 233" width="1.318" height="3.331" transform="translate(33.388 47.852)" fill="#232a37"/>
    <rect id="Rectangle_234" data-name="Rectangle 234" width="1.318" height="3.331" transform="translate(36.49 47.852)" fill="#232a37"/>
    <rect id="Rectangle_235" data-name="Rectangle 235" width="1.318" height="3.331" transform="translate(39.593 47.852)" fill="#232a37"/>
    <rect id="Rectangle_236" data-name="Rectangle 236" width="1.318" height="3.331" transform="translate(42.695 47.852)" fill="#232a37"/>
    <rect id="Rectangle_237" data-name="Rectangle 237" width="1.318" height="3.331" transform="translate(45.805 47.852)" fill="#232a37"/>
    <rect id="Rectangle_238" data-name="Rectangle 238" width="14.251" height="1.318" transform="matrix(0.708, -0.706, 0.706, 0.708, 19.222, 34.162)" fill="#232a37"/>
    <rect id="Rectangle_239" data-name="Rectangle 239" width="1.318" height="14.251" transform="translate(19.224 25.02) rotate(-45.01)" fill="#232a37"/>
    <rect id="Rectangle_240" data-name="Rectangle 240" width="14.251" height="1.318" transform="translate(17.607 28.935)" fill="#232a37"/>
    <rect id="Rectangle_241" data-name="Rectangle 241" width="1.318" height="14.259" transform="translate(24.073 22.469)" fill="#232a37"/>
    <path id="Path_194" data-name="Path 194" d="M49.652,55.055H0V0H49.652ZM1.359,53.737H48.335V1.351H1.318Z" fill="#232a37"/>
    <path id="Path_195" data-name="Path 195" d="M54.281,42.846H54L29.07,17.921l.925-.941.475.467,24.27,24.278-.458.458Z" transform="translate(-5.275 -3.081)" fill="#232a37"/>
    <rect id="Rectangle_242" data-name="Rectangle 242" width="1.318" height="26.144" transform="translate(30.047 14.798) rotate(-44.99)" fill="#232a37"/>
    <rect id="Rectangle_243" data-name="Rectangle 243" width="1.318" height="17.238" transform="translate(36.349 14.807) rotate(-45)" fill="#232a37"/>
    <path id="Path_196" data-name="Path 196" d="M57.983,23.767,52.09,17.873l.933-.933L59.1,23.03v.27l-.655.008Z" transform="translate(-9.452 -3.074)" fill="#232a37"/>
    <path id="Path_197" data-name="Path 197" d="M53.023,54l-.933-.933,5.7-5.705v-.385l.663-.008.008.663H59.1v.27l-.188.2Z" transform="translate(-9.452 -8.523)" fill="#232a37"/>
    <rect id="Rectangle_244" data-name="Rectangle 244" width="17.238" height="1.318" transform="matrix(0.707, -0.707, 0.707, 0.707, 36.337, 44.543)" fill="#232a37"/>
    <rect id="Rectangle_245" data-name="Rectangle 245" width="26.144" height="1.318" transform="matrix(0.708, -0.706, 0.706, 0.708, 30.041, 44.529)" fill="#232a37"/>
    <path id="Path_198" data-name="Path 198" d="M30.018,49.795l-.524-.409-.434-.491L53.8,24.15l.933.933Z" transform="translate(-5.273 -4.382)" fill="#232a37"/>
    <rect id="Rectangle_246" data-name="Rectangle 246" width="34.943" height="1.318" transform="matrix(0.707, -0.707, 0.707, 0.707, 0.188, 38.637)" fill="#232a37"/>
    <path id="Path_199" data-name="Path 199" d="M1.151,36.364l-.442-.45-.589-.36.1-.123L18.7,16.94l.933.933Z" transform="translate(-0.022 -3.074)" fill="#232a37"/>
    <path id="Path_200" data-name="Path 200" d="M1.05,30.159.7,29.586.24,29.128,12.428,16.94l.933.933Z" transform="translate(-0.044 -3.074)" fill="#232a37"/>
    <path id="Path_201" data-name="Path 201" d="M.985,23.963H.707V23.3L.24,22.842l5.893-5.9.933.933Z" transform="translate(-0.044 -3.074)" fill="#232a37"/>
    <rect id="Rectangle_247" data-name="Rectangle 247" width="1.318" height="8.349" transform="translate(0.189 39.576) rotate(-45)" fill="#232a37"/>
    <path id="Path_202" data-name="Path 202" d="M12.428,52.658.24,40.47.707,40l.5-.426.008.008L13.361,51.725Z" transform="translate(-0.044 -7.181)" fill="#232a37"/>
    <path id="Path_203" data-name="Path 203" d="M18.7,51.254.13,32.649l.581-.368.442-.45L19.636,50.321Z" transform="translate(-0.024 -5.776)" fill="#232a37"/>
    <path id="Path_204" data-name="Path 204" d="M25,49.841.393,25.228H.008L0,24.573l.663-.008V23.91h.27l.2.2,24.8,24.8Z" transform="translate(0 -4.339)" fill="#232a37"/>
    <rect id="Rectangle_248" data-name="Rectangle 248" width="48.22" height="1.318" transform="translate(0.458 13.67)" fill="#232a37"/>
    <rect id="Rectangle_249" data-name="Rectangle 249" width="48.22" height="1.318" transform="translate(0.458 10.813)" fill="#232a37"/>
    <rect id="Rectangle_250" data-name="Rectangle 250" width="48.4" height="1.318" transform="translate(0.475 44.34)" fill="#232a37"/>
  </g>
</svg>
