<svg id="glass-6" xmlns="http://www.w3.org/2000/svg" width="44.848" height="55.255" viewBox="0 0 44.848 55.255">
  <g id="glass">
    <path id="Path_1" data-name="Path 1" d="M22.281,54.565l-.108-.121L9.8,42.071l.754-.761L23.068,53.831Z" transform="translate(-3.203 -13.501)" fill="#232a37"/>
    <path id="Path_2" data-name="Path 2" d="M29.941,53.021l-.067-.074L14.39,37.471l.761-.761L30.721,52.281Z" transform="translate(-4.703 -11.997)" fill="#232a37"/>
    <path id="Path_3" data-name="Path 3" d="M39.355,53.232,28.2,42.071l.761-.761L40.115,52.478Z" transform="translate(-9.216 -13.501)" fill="#232a37"/>
    <rect id="Rectangle_8" data-name="Rectangle 8" width="1.07" height="17.146" transform="matrix(0.707, -0.707, 0.707, 0.707, 22.075, 25.476)" fill="#232a37"/>
    <path id="Path_4" data-name="Path 4" d="M52.82,48.291l-.034-.034L46.6,42.071l.761-.761L53.554,47.5l-.35.417Z" transform="translate(-15.23 -13.501)" fill="#232a37"/>
    <rect id="Rectangle_9" data-name="Rectangle 9" width="1.07" height="8.354" transform="matrix(0.707, -0.707, 0.707, 0.707, 34.467, 25.473)" fill="#232a37"/>
    <path id="Path_5" data-name="Path 5" d="M38.007,54.565l-.767-.754,12.494-12.5.761.761Z" transform="translate(-12.171 -13.501)" fill="#232a37"/>
    <rect id="Rectangle_10" data-name="Rectangle 10" width="22.027" height="1.07" transform="matrix(0.708, -0.706, 0.706, 0.708, 18.881, 40.27)" fill="#232a37"/>
    <rect id="Rectangle_11" data-name="Rectangle 11" width="15.813" height="1.07" transform="translate(14.001 38.988) rotate(-45)" fill="#232a37"/>
    <rect id="Rectangle_12" data-name="Rectangle 12" width="17.173" height="1.07" transform="matrix(0.707, -0.707, 0.707, 0.707, 9.941, 36.859)" fill="#232a37"/>
    <path id="Path_6" data-name="Path 6" d="M10.457,48.345l-.707-.808,6.22-6.227.761.761Z" transform="translate(-3.186 -13.501)" fill="#232a37"/>
    <rect id="Rectangle_13" data-name="Rectangle 13" width="8.395" height="1.07" transform="matrix(0.707, -0.707, 0.707, 0.707, 3.756, 30.653)" fill="#232a37"/>
    <path id="Path_7" data-name="Path 7" d="M42.655,77.335H6.37V75.046l13.6-7.486h9.088l13.6,7.486ZM7.467,76.264H41.584v-.586l-12.79-7.042H20.258L7.467,75.679Z" transform="translate(-2.082 -22.08)" fill="#232a37"/>
    <path id="Path_8" data-name="Path 8" d="M22.43,41.428a24.335,24.335,0,0,1-3.029-.2l-.222-.04A21.966,21.966,0,0,1,10.017,37.7,19.879,19.879,0,0,1,8,36.177a17.125,17.125,0,0,1-1.461-1.346c-.451-.451-.862-.9-1.266-1.346A20.525,20.525,0,0,1,3.7,31.37,22.087,22.087,0,0,1,.222,22.148v-.2A22.438,22.438,0,0,1,0,19a28.5,28.5,0,0,1,.2-3.218A48.557,48.557,0,0,1,5.069.3L5.217,0h34.42l.148.3a48.637,48.637,0,0,1,4.86,15.362v.094a28.428,28.428,0,0,1,.2,3.251,22.013,22.013,0,0,1-.209,3.043v.162A22.37,22.37,0,0,1,41.206,31.3a23.144,23.144,0,0,1-1.905,2.5c-.33.37-.633.673-.942,1s-.714.673-1.084,1.03a24.868,24.868,0,0,1-2.4,1.871,22.889,22.889,0,0,1-4.16,2.188,22.3,22.3,0,0,1-5.008,1.346h-.2a22.094,22.094,0,0,1-3.083.2ZM5.877,1.077a47.123,47.123,0,0,0-4.6,14.756v.155A28.6,28.6,0,0,0,1.1,19a22.058,22.058,0,0,0,.188,2.87,20.949,20.949,0,0,0,3.292,8.856,19.522,19.522,0,0,0,1.5,2.02c.384.451.774.882,1.212,1.346a16.344,16.344,0,0,0,1.38,1.279,22.039,22.039,0,0,0,1.939,1.454A20.869,20.869,0,0,0,14.574,38.9a21.158,21.158,0,0,0,4.78,1.266h.114a21.7,21.7,0,0,0,5.911,0h.108a21.124,21.124,0,0,0,4.807-1.313,21.347,21.347,0,0,0,3.958-2.087,23.231,23.231,0,0,0,2.242-1.717c.39-.343.734-.673,1.077-1.017s.579-.592.855-.909l.074-.081A21.643,21.643,0,0,0,40.277,30.7a21.353,21.353,0,0,0,3.278-8.751v-.108a23.15,23.15,0,0,0,.2-2.841,27.6,27.6,0,0,0-.182-3.036h0v-.155a47.459,47.459,0,0,0-4.6-14.736Zm7.284,34.07L9.31,31.29l3.851-3.857,3.1,3.1,6.193-6.2,3.857,3.864L22.457,32.05h0l-3.1,3.1-3.09-3.1ZM10.825,31.29l2.336,2.37,2.322-2.37-2.322-2.343Zm6.2,0,2.329,2.37L21.7,31.323l-2.336-2.376Zm3.1-3.1,2.336,2.336L24.8,28.193,22.457,25.85Zm12.01.377-.761-.761,3.1-3.1.761.761Z" fill="#232a37"/>
    <rect id="Rectangle_14" data-name="Rectangle 14" width="1.07" height="5.776" transform="translate(17.207 40.391)" fill="#232a37"/>
    <rect id="Rectangle_15" data-name="Rectangle 15" width="1.07" height="5.776" transform="translate(26.577 40.391)" fill="#232a37"/>
    <rect id="Rectangle_16" data-name="Rectangle 16" width="1.077" height="1.178" transform="translate(7.237 53.545)" fill="#232a37"/>
    <rect id="Rectangle_17" data-name="Rectangle 17" width="1.07" height="1.178" transform="translate(10.488 53.545)" fill="#232a37"/>
    <rect id="Rectangle_18" data-name="Rectangle 18" width="1.07" height="1.178" transform="translate(13.733 53.545)" fill="#232a37"/>
    <rect id="Rectangle_19" data-name="Rectangle 19" width="1.07" height="1.178" transform="translate(16.978 53.545)" fill="#232a37"/>
    <rect id="Rectangle_20" data-name="Rectangle 20" width="1.07" height="1.178" transform="translate(20.222 53.545)" fill="#232a37"/>
    <rect id="Rectangle_21" data-name="Rectangle 21" width="1.07" height="1.178" transform="translate(23.467 53.545)" fill="#232a37"/>
    <rect id="Rectangle_22" data-name="Rectangle 22" width="1.07" height="1.178" transform="translate(26.719 53.545)" fill="#232a37"/>
    <rect id="Rectangle_23" data-name="Rectangle 23" width="1.07" height="1.178" transform="translate(29.963 53.545)" fill="#232a37"/>
    <rect id="Rectangle_24" data-name="Rectangle 24" width="1.07" height="1.178" transform="translate(33.208 53.545)" fill="#232a37"/>
    <rect id="Rectangle_25" data-name="Rectangle 25" width="1.07" height="1.178" transform="translate(36.453 53.545)" fill="#232a37"/>
    <rect id="Rectangle_26" data-name="Rectangle 26" width="1.07" height="13.942" transform="translate(21.912 11.188)" fill="#232a37"/>
    <rect id="Rectangle_27" data-name="Rectangle 27" width="6.415" height="1.07" transform="translate(19.796 16.226) rotate(-44.95)" fill="#232a37"/>
    <rect id="Rectangle_28" data-name="Rectangle 28" width="1.07" height="6.415" transform="translate(19.798 12.449) rotate(-45.01)" fill="#232a37"/>
    <rect id="Rectangle_29" data-name="Rectangle 29" width="6.415" height="1.077" transform="translate(19.24 13.807)" fill="#232a37"/>
    <rect id="Rectangle_30" data-name="Rectangle 30" width="1.07" height="12.198" transform="translate(9.532 12.925)" fill="#232a37"/>
    <rect id="Rectangle_31" data-name="Rectangle 31" width="6.415" height="1.07" transform="translate(7.419 17.968) rotate(-45.05)" fill="#232a37"/>
    <rect id="Rectangle_32" data-name="Rectangle 32" width="1.07" height="6.415" transform="translate(7.415 14.194) rotate(-45)" fill="#232a37"/>
    <rect id="Rectangle_33" data-name="Rectangle 33" width="6.415" height="1.07" transform="translate(6.853 15.544)" fill="#232a37"/>
    <rect id="Rectangle_34" data-name="Rectangle 34" width="1.07" height="12.198" transform="translate(34.319 12.925)" fill="#232a37"/>
    <rect id="Rectangle_35" data-name="Rectangle 35" width="6.415" height="1.07" transform="matrix(0.707, -0.707, 0.707, 0.707, 32.205, 17.967)" fill="#232a37"/>
    <rect id="Rectangle_36" data-name="Rectangle 36" width="1.07" height="6.415" transform="translate(32.203 14.191) rotate(-45.01)" fill="#232a37"/>
    <rect id="Rectangle_37" data-name="Rectangle 37" width="6.415" height="1.07" transform="translate(31.646 15.544)" fill="#232a37"/>
    <rect id="Rectangle_38" data-name="Rectangle 38" width="1.07" height="12.804" transform="translate(28.112 18.513)" fill="#232a37"/>
    <rect id="Rectangle_39" data-name="Rectangle 39" width="6.415" height="1.07" transform="matrix(0.707, -0.707, 0.707, 0.707, 25.998, 23.549)" fill="#232a37"/>
    <rect id="Rectangle_40" data-name="Rectangle 40" width="1.07" height="6.415" transform="translate(25.992 19.776) rotate(-45)" fill="#232a37"/>
    <rect id="Rectangle_41" data-name="Rectangle 41" width="6.415" height="1.07" transform="translate(25.44 21.124)" fill="#232a37"/>
    <rect id="Rectangle_42" data-name="Rectangle 42" width="1.07" height="12.232" transform="translate(40.277 18.513)" fill="#232a37"/>
    <rect id="Rectangle_43" data-name="Rectangle 43" width="6.415" height="1.07" transform="matrix(0.707, -0.707, 0.707, 0.707, 38.167, 23.551)" fill="#232a37"/>
    <rect id="Rectangle_44" data-name="Rectangle 44" width="1.07" height="7.136" transform="translate(38.162 19.776) rotate(-45.01)" fill="#232a37"/>
    <rect id="Rectangle_45" data-name="Rectangle 45" width="6.415" height="1.07" transform="translate(37.604 21.124)" fill="#232a37"/>
    <rect id="Rectangle_46" data-name="Rectangle 46" width="1.077" height="12.804" transform="translate(15.732 18.513)" fill="#232a37"/>
    <rect id="Rectangle_47" data-name="Rectangle 47" width="6.415" height="1.07" transform="matrix(0.707, -0.707, 0.707, 0.707, 13.614, 23.553)" fill="#232a37"/>
    <rect id="Rectangle_48" data-name="Rectangle 48" width="1.07" height="6.415" transform="translate(13.617 19.779) rotate(-45)" fill="#232a37"/>
    <rect id="Rectangle_49" data-name="Rectangle 49" width="6.415" height="1.07" transform="translate(13.053 21.124)" fill="#232a37"/>
    <rect id="Rectangle_50" data-name="Rectangle 50" width="1.07" height="12.232" transform="translate(3.568 18.513)" fill="#232a37"/>
    <rect id="Rectangle_51" data-name="Rectangle 51" width="7.25" height="1.07" transform="matrix(0.707, -0.707, 0.707, 0.707, 0.861, 24.141)" fill="#232a37"/>
    <rect id="Rectangle_52" data-name="Rectangle 52" width="1.07" height="6.415" transform="translate(1.447 19.784) rotate(-45)" fill="#232a37"/>
    <rect id="Rectangle_53" data-name="Rectangle 53" width="6.415" height="1.07" transform="translate(0.889 21.124)" fill="#232a37"/>
  </g>
</svg>
