<svg id="glass-1" xmlns="http://www.w3.org/2000/svg" width="29.659" height="60.807" viewBox="0 0 29.659 60.807">
  <g id="glass">
    <path id="Path_26" data-name="Path 26" d="M28.64,111.5H1.93v-2.146l10.562-4.713.295.918L2.762,110.028v.493H27.808v-.493l-10.019-4.469.295-.918,10.557,4.713Z" transform="translate(-0.756 -50.692)" fill="#a78b7d"/>
    <path id="Path_27" data-name="Path 27" d="M14.856,35.973h-.047c-.97,0-1.915,0-2.806-.073l-.829-.024c-1.3-.085-2.523-.213-3.672-.383a26.754,26.754,0,0,1-3.672-.742C1.972,34.21.776,33.566.283,32.836A1.53,1.53,0,0,1,0,31.948V0H29.659V31.936a1.579,1.579,0,0,1-.283.9c-.493.748-1.689,1.392-3.551,1.915a27.081,27.081,0,0,1-3.672.742c-1.133.17-2.366.3-3.672.383h-.824C16.786,35.949,15.826,35.973,14.856,35.973ZM.845.979V31.936a.455.455,0,0,0,.1.286c.168.255.813.918,3.079,1.563a27.235,27.235,0,0,0,3.588.724c1.117.164,2.329.286,3.6.371l.813.043c.887.043,1.815.067,2.775.067h.047c.955,0,1.888,0,2.764-.067l.824-.043c1.275-.085,2.481-.207,3.6-.371a27.57,27.57,0,0,0,3.588-.724c2.271-.645,2.911-1.307,3.079-1.563a.509.509,0,0,0,.1-.274V.979Z" fill="#a78b7d"/>
    <path id="Path_28" data-name="Path 28" d="M14.856,35.973h-.047c-.97,0-1.915,0-2.806-.073l-.829-.024c-1.3-.085-2.523-.213-3.672-.383a26.754,26.754,0,0,1-3.672-.742C1.972,34.21.776,33.566.283,32.836A1.53,1.53,0,0,1,0,31.948V0H29.659V31.936a1.579,1.579,0,0,1-.283.9c-.493.748-1.689,1.392-3.551,1.915a27.081,27.081,0,0,1-3.672.742c-1.133.17-2.366.3-3.672.383h-.824C16.786,35.949,15.826,35.973,14.856,35.973ZM.845.979V31.936a.455.455,0,0,0,.1.286c.168.255.813.918,3.079,1.563a27.235,27.235,0,0,0,3.588.724c1.117.164,2.329.286,3.6.371l.813.043c.887.043,1.815.067,2.775.067h.047c.955,0,1.888,0,2.764-.067l.824-.043c1.275-.085,2.481-.207,3.6-.371a27.57,27.57,0,0,0,3.588-.724c2.271-.645,2.911-1.307,3.079-1.563a.509.509,0,0,0,.1-.274V.979Z" fill="#a78b7d"/>
    <path id="Path_29" data-name="Path 29" d="M29.608,76.18H22.116l-.006-.486V58.23h.979V75.2h5.54V58.23h.979Z" transform="translate(-11.027 -29.346)" fill="#a78b7d"/>
    <path id="Path_30" data-name="Path 30" d="M27.251,98.387H20.179L16.64,92.269l3.539-6.129h7.072l3.533,6.129Zm-6.506-.979h5.941l2.943-5.138-2.967-5.15H20.744l-2.973,5.15Z" transform="translate(-8.883 -43.441)" fill="#a78b7d"/>
    <rect id="Rectangle_62" data-name="Rectangle 62" width="13.007" height="0.979" transform="translate(8.328 48.342)" fill="#a78b7d"/>
    <rect id="Rectangle_63" data-name="Rectangle 63" width="0.979" height="11.128" transform="translate(14.342 43.307)" fill="#a78b7d"/>
    <rect id="Rectangle_64" data-name="Rectangle 64" width="7.212" height="0.979" transform="translate(11.887 51.096) rotate(-45)" fill="#a78b7d"/>
    <rect id="Rectangle_65" data-name="Rectangle 65" width="0.979" height="7.212" transform="matrix(0.707, -0.707, 0.707, 0.707, 11.884, 46.694)" fill="#a78b7d"/>
    <path id="Path_31" data-name="Path 31" d="M9.389,44.842l-.553-.067a35.3,35.3,0,0,1-4.256-.742c-2.171-.523-3.557-1.167-4.129-1.9L.31,41.96l.043-.219C1.374,36.536,4.177,25.664,4.2,25.554l.474-1.824.474,1.824c.17.663,4.2,16.3,4.256,18.741ZM1.338,41.674a7.984,7.984,0,0,0,3.43,1.411,35.724,35.724,0,0,0,3.557.645c-.3-2.6-2.28-10.714-3.648-16.09C3.849,30.917,2.146,37.752,1.338,41.674Z" transform="translate(-0.121 -12.13)" fill="#a78b7d"/>
    <rect id="Rectangle_66" data-name="Rectangle 66" width="0.979" height="17.561" transform="translate(4.068 13.644)" fill="#a78b7d"/>
    <path id="Path_32" data-name="Path 32" d="M19.75,48.428h-.979V45.181h-.493c-1.5-.085-2.925-.213-4.256-.383l-.432-.055V44.3c.03-2.432,4.05-18.078,4.22-18.741l.474-1.824.474,1.824c.176.669,4.257,16.418,4.257,18.777a5.011,5.011,0,0,1,0,.517l-.973-.109v-.407c0-1.611-2.219-10.757-3.727-16.679-1.392,5.473-3.405,13.773-3.685,16.223,1.167.14,2.432.243,3.715.316l.943.043h.474Z" transform="translate(-6.89 -12.356)" fill="#a78b7d"/>
    <rect id="Rectangle_67" data-name="Rectangle 67" width="0.979" height="18.674" transform="translate(10.724 13.578)" fill="#a78b7d"/>
    <path id="Path_33" data-name="Path 33" d="M31.693,48.424h-.979v-4.19h.468l.949-.043c1.3-.073,2.548-.176,3.715-.316-.286-2.432-2.3-10.739-3.691-16.223-1.5,5.917-3.721,15.068-3.721,16.679a3.205,3.205,0,0,0,0,.413l-.973.1a4.8,4.8,0,0,1-.03-.511c0-2.359,4.056-18.108,4.257-18.777l.474-1.824.474,1.824c.17.663,4.2,16.3,4.256,18.741v.438l-.432.055c-1.32.17-2.748.3-4.257.383h-.493Z" transform="translate(-13.911 -12.351)" fill="#a78b7d"/>
    <rect id="Rectangle_68" data-name="Rectangle 68" width="0.979" height="18.674" transform="translate(17.961 13.578)" fill="#a78b7d"/>
    <path id="Path_34" data-name="Path 34" d="M41.31,44.834v-.559c0-2.432,4.056-18.078,4.257-18.741l.474-1.824.474,1.824c.03.109,2.828,10.945,3.849,16.181l.043.219-.164.195c-.572.748-1.958,1.392-4.117,1.915a35.833,35.833,0,0,1-4.256.742Zm4.706-17.2c-1.368,5.375-3.338,13.487-3.679,16.09a34.344,34.344,0,0,0,3.557-.645,7.981,7.981,0,0,0,3.43-1.411c-.772-3.928-2.475-10.757-3.308-14.034Z" transform="translate(-20.912 -12.12)" fill="#a78b7d"/>
    <rect id="Rectangle_69" data-name="Rectangle 69" width="0.979" height="17.561" transform="translate(24.618 13.644)" fill="#a78b7d"/>
    <rect id="Rectangle_70" data-name="Rectangle 70" width="28.674" height="0.979" transform="translate(0.493 2.785)" fill="#a78b7d"/>
  </g>
</svg>
