<svg xmlns="http://www.w3.org/2000/svg" width="37.745" height="37.745" viewBox="0 0 37.745 37.745">
  <g id="instagram" transform="translate(-126.7 -203.1)">
    <path id="Path_224" data-name="Path 224" d="M163.454,209.6a9.622,9.622,0,0,0-5.513-5.513,13.771,13.771,0,0,0-4.58-.875c-2.013-.088-2.654-.117-7.788-.117s-5.776.015-7.788.117a13.693,13.693,0,0,0-4.58.875,9.622,9.622,0,0,0-5.513,5.513,13.771,13.771,0,0,0-.875,4.58c-.088,2.013-.117,2.654-.117,7.788s.015,5.776.117,7.788a13.693,13.693,0,0,0,.875,4.58,9.622,9.622,0,0,0,5.513,5.513,13.771,13.771,0,0,0,4.58.875c2.013.088,2.654.117,7.788.117s5.776-.015,7.788-.117a13.693,13.693,0,0,0,4.58-.875,9.622,9.622,0,0,0,5.513-5.513,13.771,13.771,0,0,0,.875-4.58c.088-2.013.117-2.654.117-7.788s-.015-5.776-.117-7.788A13.693,13.693,0,0,0,163.454,209.6Zm-2.523,20a10.316,10.316,0,0,1-.656,3.5,5.845,5.845,0,0,1-1.415,2.173,5.909,5.909,0,0,1-2.173,1.415,10.4,10.4,0,0,1-3.5.656c-2,.088-2.581.117-7.628.117s-5.644-.015-7.628-.117a10.316,10.316,0,0,1-3.5-.656,5.845,5.845,0,0,1-2.173-1.415,5.908,5.908,0,0,1-1.415-2.173,10.4,10.4,0,0,1-.656-3.5c-.088-2-.117-2.6-.117-7.628s.015-5.644.117-7.628a10.316,10.316,0,0,1,.656-3.5,5.846,5.846,0,0,1,1.415-2.173,5.908,5.908,0,0,1,2.173-1.415,10.4,10.4,0,0,1,3.5-.656c2-.088,2.6-.117,7.628-.117s5.644.015,7.628.117a10.316,10.316,0,0,1,3.5.656,5.845,5.845,0,0,1,2.173,1.415,5.908,5.908,0,0,1,1.415,2.173,10.4,10.4,0,0,1,.656,3.5c.088,2,.117,2.6.117,7.628S161.018,227.617,160.93,229.6Z" fill="#acb9c8"/>
    <path id="Path_225" data-name="Path 225" d="M199.2,266a9.7,9.7,0,1,0,9.7,9.7A9.7,9.7,0,0,0,199.2,266Zm0,16a6.3,6.3,0,1,1,6.3-6.3A6.3,6.3,0,0,1,199.2,282Z" transform="translate(-53.641 -53.726)" fill="#acb9c8"/>
    <circle id="Ellipse_15" data-name="Ellipse 15" cx="2.261" cy="2.261" r="2.261" transform="translate(153.376 209.634)" fill="#acb9c8"/>
  </g>
</svg>
